<svg width="84" height="24" viewBox="0 0 84 24" fill="none" xmlns="http://www.w3.org/2000/svg">
<g clip-path="url(#clip0_17_349)">
<path d="M9.09675 3.97276V10.7425H2.92846V3.97276H0V20.1328H2.92846V13.5829H9.09675V20.1328H12.0252V3.97276H9.09675Z" fill="#33475B"/>
<path d="M21.3974 14.9091C21.3974 15.5567 21.1422 16.1778 20.6878 16.6358C20.2335 17.0937 19.6173 17.351 18.9747 17.351C18.3322 17.351 17.716 17.0937 17.2616 16.6358C16.8073 16.1778 16.552 15.5567 16.552 14.9091V7.98746H13.7742V14.9091C13.7742 16.2979 14.3216 17.6299 15.296 18.612C16.2703 19.5941 17.5918 20.1458 18.9697 20.1458C20.3476 20.1458 21.6691 19.5941 22.6435 18.612C23.6178 17.6299 24.1652 16.2979 24.1652 14.9091V7.98746H21.3974V14.9091Z" fill="#33475B"/>
<path d="M41.9786 8.70045C41.9786 7.28171 42.9098 6.83194 43.93 6.83194C44.7521 6.83194 45.8383 7.46249 46.5485 8.22754L48.3679 6.06689C47.4596 4.82892 45.6173 3.97276 44.1093 3.97276C41.0962 3.97276 38.9167 5.75161 38.9167 8.70045C38.9167 14.1715 45.5513 12.436 45.5513 15.4977C45.5513 16.4421 44.6416 17.2765 43.6 17.2765C41.9571 17.2765 41.4248 16.4666 40.6701 15.6105L38.6513 17.7263C39.9426 19.3244 41.5352 20.1357 43.4436 20.1357C46.306 20.1357 48.6089 18.3352 48.6089 15.5208C48.6089 9.4467 41.9743 11.334 41.9743 8.70045" fill="#33475B"/>
<path d="M83.0228 17.5513C81.3814 17.5513 80.9151 16.8354 80.9151 15.7392V10.8871H83.4662V8.42856H80.9151V5.1847L78.0985 6.45881V16.3423C78.0985 18.8703 79.8289 20.1444 82.2021 20.1444C82.5743 20.1512 82.9463 20.1212 83.3127 20.0547L83.9999 17.505C83.69 17.5267 83.3342 17.5484 83.0228 17.5484" fill="#33475B"/>
<path d="M31.9706 8.06846C30.5946 8.06846 29.6347 8.47051 28.7064 9.38886V4.06966H25.9243V13.9285C25.9243 17.6193 28.5715 20.1473 31.5459 20.1473C34.846 20.1473 37.7486 17.5745 37.7486 14.1093C37.7486 10.6876 35.077 8.0699 31.9706 8.0699V8.06846ZM31.9534 17.3257C31.3291 17.3257 30.7188 17.1391 30.1997 16.7895C29.6806 16.4399 29.276 15.943 29.0371 15.3616C28.7982 14.7802 28.7357 14.1405 28.8575 13.5233C28.9793 12.9061 29.2799 12.3392 29.7214 11.8942C30.1628 11.4493 30.7253 11.1462 31.3376 11.0235C31.9499 10.9007 32.5846 10.9637 33.1614 11.2045C33.7382 11.4453 34.2312 11.8532 34.578 12.3764C34.9249 12.8996 35.11 13.5147 35.11 14.144C35.11 14.9879 34.7774 15.7971 34.1855 16.3938C33.5935 16.9905 32.7906 17.3257 31.9534 17.3257Z" fill="#33475B"/>
<path d="M62.1792 13.9618C62.1792 10.4909 59.2823 7.92383 55.9765 7.92383C53.0021 7.92383 50.3549 10.4518 50.3549 14.1426V24.0072H53.137V18.6808C54.0639 19.5977 55.0252 20.0012 56.3997 20.0012C59.5061 20.0012 62.1778 17.385 62.1778 13.9618H62.1792ZM59.5449 13.9271C59.5449 14.5564 59.3597 15.1715 59.0129 15.6947C58.666 16.218 58.173 16.6258 57.5962 16.8666C57.0194 17.1074 56.3848 17.1704 55.7724 17.0476C55.1601 16.9249 54.5977 16.6218 54.1562 16.1769C53.7148 15.7319 53.4141 15.165 53.2923 14.5478C53.1705 13.9306 53.233 13.2909 53.4719 12.7095C53.7109 12.1281 54.1155 11.6312 54.6346 11.2816C55.1537 10.932 55.7639 10.7454 56.3883 10.7454C57.2254 10.7454 58.0283 11.0806 58.6203 11.6773C59.2123 12.274 59.5449 13.0832 59.5449 13.9271Z" fill="#33475B"/>
<path d="M71.167 7.78789V4.97065C71.5364 4.79669 71.8492 4.52056 72.0689 4.1744C72.2886 3.82825 72.4063 3.4263 72.4082 3.01537V2.95029C72.4082 2.37494 72.1814 1.82317 71.7778 1.41634C71.3742 1.00951 70.8267 0.780958 70.2559 0.780958H70.1914C69.6206 0.780958 69.0731 1.00951 68.6695 1.41634C68.2659 1.82317 68.0391 2.37494 68.0391 2.95029V3.01537C68.041 3.4263 68.1587 3.82825 68.3784 4.1744C68.5981 4.52056 68.9109 4.79669 69.2803 4.97065V7.78789C68.2186 7.95159 67.2188 8.39512 66.3819 9.07358L58.7171 3.05586C58.7714 2.85742 58.8003 2.65282 58.8032 2.447C58.8041 1.96354 58.6627 1.49069 58.3968 1.08825C58.131 0.68581 57.7528 0.371866 57.31 0.186127C56.8671 0.000388094 56.3796 -0.0488013 55.909 0.0447804C55.4384 0.138362 55.006 0.370511 54.6663 0.711863C54.3266 1.05322 54.095 1.48843 54.0008 1.96247C53.9066 2.43651 53.9539 2.92807 54.1369 3.37498C54.3198 3.82188 54.6302 4.20405 55.0287 4.47316C55.4272 4.74226 55.8959 4.8862 56.3755 4.88677C56.7949 4.88488 57.2065 4.77219 57.5693 4.55993L65.1179 10.4793C64.4396 11.5119 64.0857 12.7265 64.1023 13.9647C64.119 15.203 64.5054 16.4075 65.2111 17.4212L62.9154 19.7351C62.7298 19.6753 62.5363 19.6437 62.3415 19.6411C61.9477 19.6414 61.5629 19.7593 61.2356 19.98C60.9083 20.2007 60.6533 20.5142 60.5027 20.8809C60.3522 21.2477 60.3128 21.6512 60.3897 22.0404C60.4666 22.4297 60.6563 22.7872 60.9347 23.0679C61.2131 23.3485 61.5679 23.5397 61.954 23.6172C62.3402 23.6947 62.7405 23.655 63.1044 23.5033C63.4682 23.3515 63.7793 23.0945 63.9982 22.7646C64.2171 22.4347 64.3342 22.0468 64.3344 21.6499C64.332 21.4535 64.3005 21.2585 64.2412 21.0714L66.5125 18.782C67.2531 19.3565 68.1144 19.7525 69.0303 19.9397C69.9462 20.1269 70.8924 20.1003 71.7965 19.8619C72.7007 19.6236 73.5387 19.1799 74.2464 18.5647C74.9541 17.9496 75.5128 17.1793 75.8796 16.3129C76.2464 15.4466 76.4116 14.5071 76.3625 13.5664C76.3135 12.6257 76.0515 11.7089 75.5966 10.886C75.1418 10.0632 74.5061 9.35616 73.7383 8.81915C72.9705 8.28214 72.091 7.92938 71.167 7.78789ZM70.2258 17.0524C69.6045 17.0518 68.9973 16.8656 68.481 16.5173C67.9647 16.169 67.5624 15.6742 67.3249 15.0955C67.0875 14.5168 67.0256 13.8802 67.147 13.266C67.2685 12.6519 67.5679 12.0878 68.0073 11.6451C68.4467 11.2024 69.0065 10.9009 69.6158 10.7787C70.2252 10.6566 70.8568 10.7193 71.4308 10.9589C72.0049 11.1985 72.4955 11.6042 72.8409 12.1248C73.1862 12.6454 73.3706 13.2575 73.3709 13.8837C73.3709 14.7237 73.0399 15.5293 72.4506 16.1233C71.8613 16.7172 71.062 17.0509 70.2287 17.0509" fill="#FF7A59"/>
</g>
<defs>
<clipPath id="clip0_17_349">
<rect width="84" height="24" fill="white"/>
</clipPath>
</defs>
</svg>
