<svg width="122" height="26" viewBox="0 0 122 26" fill="none" xmlns="http://www.w3.org/2000/svg">
<g clip-path="url(#clip0_17_367)">
<path d="M43.0636 14.9752L42.3364 17.031H42.2758C42.1546 16.5674 41.9324 15.862 41.5689 15.0155L37.6705 5.24031H33.853V20.8202H36.3778V11.2062C36.3778 10.6016 36.3778 9.91628 36.3576 9.06977C36.3374 8.64651 36.297 8.32403 36.2768 8.08217H36.3374C36.4586 8.68682 36.6 9.13023 36.701 9.4124L41.3871 20.7798H43.1646L47.8102 9.31163C47.9112 9.04961 48.0122 8.52558 48.1132 8.08217H48.1738C48.1132 9.23101 48.0728 10.2589 48.0526 10.8837V20.7597H50.7391V5.2H47.0629L43.0636 14.9752ZM53.2841 9.5938H55.9099V20.7597H53.2841V9.5938ZM54.6172 4.87752C54.1728 4.87752 53.8093 5.03876 53.5063 5.32093C53.2033 5.6031 53.0417 5.96589 53.0417 6.4093C53.0417 6.83256 53.2033 7.19535 53.5063 7.47752C53.8093 7.75969 54.1728 7.90078 54.6172 7.90078C55.0616 7.90078 55.4453 7.73953 55.7281 7.47752C56.0311 7.19535 56.1927 6.83256 56.1927 6.4093C56.1927 5.98605 56.0311 5.62326 55.7281 5.32093C55.4655 5.03876 55.0818 4.87752 54.6172 4.87752ZM65.2215 9.49302C64.7367 9.39225 64.2318 9.33178 63.747 9.33178C62.5553 9.33178 61.4645 9.5938 60.5556 10.1178C59.6467 10.6419 58.9195 11.3674 58.4549 12.2744C57.9702 13.2016 57.7278 14.2698 57.7278 15.4992C57.7278 16.5674 57.9702 17.5147 58.4347 18.3814C58.8993 19.2279 59.5457 19.9132 60.4142 20.3767C61.2424 20.8403 62.2119 21.0822 63.3026 21.0822C64.5549 21.0822 65.6255 20.8202 66.4738 20.3364L66.494 20.3163V17.8977L66.393 17.9783C66.0093 18.2605 65.5649 18.5023 65.1205 18.6434C64.6559 18.8047 64.2318 18.8853 63.8682 18.8853C62.8179 18.8853 61.9897 18.5829 61.404 17.9178C60.798 17.2729 60.495 16.386 60.495 15.2775C60.495 14.1287 60.798 13.2217 61.4242 12.5566C62.0503 11.8915 62.8785 11.5488 63.8884 11.5488C64.7367 11.5488 65.6053 11.831 66.393 12.3953L66.494 12.476V9.91628L66.4738 9.89612C66.1304 9.75504 65.7467 9.5938 65.2215 9.49302ZM73.8867 9.4124C73.2404 9.4124 72.6344 9.61395 72.1093 10.0372C71.6649 10.4 71.3619 10.924 71.0993 11.5488H71.0791V9.5938H68.4533V20.7597H71.0791V15.0558C71.0791 14.0884 71.2811 13.2822 71.7255 12.6977C72.1698 12.093 72.7354 11.7907 73.4222 11.7907C73.6646 11.7907 73.9069 11.8512 74.2099 11.8915C74.4927 11.9721 74.6947 12.0527 74.8361 12.1535L74.9371 12.2341V9.61395L74.8765 9.5938C74.6947 9.47287 74.3311 9.4124 73.8867 9.4124ZM81.0371 9.35194C79.199 9.35194 77.7245 9.89612 76.6944 10.9643C75.644 12.0326 75.1391 13.5039 75.1391 15.3581C75.1391 17.0915 75.6642 18.5023 76.6742 19.5302C77.6841 20.538 79.0576 21.062 80.7745 21.062C82.5722 21.062 84.0063 20.5178 85.0364 19.4295C86.0867 18.3411 86.5917 16.8899 86.5917 15.0961C86.5917 13.3225 86.1069 11.9116 85.1172 10.8837C84.1679 9.85581 82.7742 9.35194 81.0371 9.35194ZM83.1377 17.938C82.653 18.5628 81.8854 18.8651 80.9361 18.8651C79.9867 18.8651 79.2192 18.5628 78.6738 17.8977C78.1285 17.2729 77.8659 16.3659 77.8659 15.2171C77.8659 14.0279 78.1487 13.1209 78.6738 12.476C79.2192 11.831 79.9665 11.5085 80.9159 11.5085C81.845 11.5085 82.5722 11.8109 83.0973 12.4357C83.6225 13.0605 83.9053 13.9674 83.9053 15.1566C83.8649 16.3659 83.6427 17.3132 83.1377 17.938ZM92.4493 14.2295C91.6212 13.8868 91.096 13.6248 90.8536 13.4031C90.6516 13.2016 90.5506 12.9194 90.5506 12.5566C90.5506 12.2543 90.6718 11.9519 90.9748 11.7504C91.2778 11.5488 91.6212 11.4481 92.1261 11.4481C92.5705 11.4481 93.0351 11.5287 93.4794 11.6496C93.9238 11.7705 94.3278 11.9519 94.651 12.1938L94.752 12.2744V9.8155L94.6914 9.79535C94.3884 9.67442 93.9844 9.55349 93.4996 9.45271C93.0149 9.37209 92.5705 9.33178 92.2069 9.33178C90.9546 9.33178 89.9245 9.63411 89.1165 10.2992C88.3086 10.924 87.9248 11.7705 87.9248 12.7581C87.9248 13.2822 88.0056 13.7457 88.1874 14.1287C88.3692 14.5116 88.6318 14.8744 88.9953 15.1767C89.3589 15.4589 89.8841 15.7814 90.6112 16.0837C91.2172 16.3457 91.6818 16.5473 91.9645 16.7085C92.2473 16.8698 92.4291 17.0512 92.5705 17.1922C92.6715 17.3535 92.7321 17.555 92.7321 17.8171C92.7321 18.5628 92.1665 18.9256 91.0152 18.9256C90.5708 18.9256 90.1063 18.845 89.5609 18.6636C89.0155 18.4822 88.5106 18.2202 88.0864 17.9178L87.9854 17.8372V20.3969L88.046 20.4171C88.4298 20.5985 88.8943 20.7194 89.4599 20.8605C90.0255 20.9612 90.5304 21.0419 90.9748 21.0419C92.3281 21.0419 93.439 20.7395 94.2268 20.0744C95.0347 19.4295 95.4589 18.6031 95.4589 17.5349C95.4589 16.7891 95.2569 16.124 94.8126 15.6202C94.2268 15.1364 93.4996 14.6326 92.4493 14.2295ZM102.387 9.35194C100.549 9.35194 99.0745 9.89612 98.0443 10.9643C97.0142 12.0326 96.4891 13.5039 96.4891 15.3581C96.4891 17.0915 97.0142 18.5023 98.0241 19.5302C99.0341 20.538 100.408 21.062 102.124 21.062C103.922 21.062 105.356 20.5178 106.386 19.4295C107.437 18.3411 107.942 16.8899 107.942 15.0961C107.942 13.3225 107.457 11.9116 106.467 10.8837C105.518 9.85581 104.124 9.35194 102.387 9.35194ZM104.468 17.938C103.983 18.5628 103.215 18.8651 102.266 18.8651C101.296 18.8651 100.549 18.5628 100.004 17.8977C99.4583 17.2729 99.1957 16.3659 99.1957 15.2171C99.1957 14.0279 99.4785 13.1209 100.004 12.476C100.549 11.831 101.296 11.5085 102.246 11.5085C103.155 11.5085 103.902 11.8109 104.427 12.4357C104.952 13.0605 105.235 13.9674 105.235 15.1566C105.235 16.3659 104.972 17.3132 104.468 17.938ZM121.98 11.7504V9.5938H119.334V6.28837L119.253 6.30853L116.748 7.05426L116.688 7.07442V9.5938H112.729V8.18295C112.729 7.53798 112.89 7.03411 113.173 6.71163C113.456 6.38915 113.88 6.22791 114.405 6.22791C114.769 6.22791 115.153 6.30853 115.577 6.48992L115.678 6.55039V4.27287L115.617 4.25271C115.254 4.13178 114.769 4.05116 114.143 4.05116C113.355 4.05116 112.668 4.23256 112.042 4.53488C111.416 4.87752 110.951 5.34109 110.608 5.96589C110.265 6.57054 110.083 7.25581 110.083 8.04186V9.5938H108.245V11.7302H110.083V20.7597H112.729V11.7504H116.688V17.4946C116.688 19.8527 117.799 21.0419 120.021 21.0419C120.384 21.0419 120.768 20.9814 121.131 20.9209C121.515 20.8403 121.798 20.7395 121.96 20.6589L121.98 20.6388V18.4822L121.879 18.5628C121.717 18.6636 121.576 18.7442 121.333 18.8047C121.131 18.8651 120.95 18.8853 120.808 18.8853C120.283 18.8853 119.92 18.7643 119.657 18.462C119.415 18.1798 119.293 17.7163 119.293 17.031V11.7504H121.98Z" fill="#737373"/>
<path d="M0 0H12.3818V12.355H0V0Z" fill="#F25022"/>
<path d="M13.6744 0H26.0562V12.355H13.6744V0Z" fill="#7FBA00"/>
<path d="M0 13.645H12.3818V26H0V13.645Z" fill="#00A4EF"/>
<path d="M13.6744 13.645H26.0562V26H13.6744V13.645Z" fill="#FFB900"/>
</g>
<defs>
<clipPath id="clip0_17_367">
<rect width="122" height="26" fill="white"/>
</clipPath>
</defs>
</svg>
